<?xml version="1.0" standalone="no"?>
<!DOCTYPE svg PUBLIC "-//W3C//DTD SVG 20010904//EN"
 "http://www.w3.org/TR/2001/REC-SVG-20010904/DTD/svg10.dtd">
<svg version="1.0" xmlns="http://www.w3.org/2000/svg"
 width="512.000000pt" height="512.000000pt" viewBox="0 0 512.000000 512.000000"
 preserveAspectRatio="xMidYMid meet">
<metadata>
Created by potrace 1.14, written by Peter Selinger 2001-2017
</metadata>
<g transform="translate(0.000000,512.000000) scale(0.100000,-0.100000)"
fill="#000000" stroke="none">
<path d="M0 2560 l0 -2560 2560 0 2560 0 0 2560 0 2560 -2560 0 -2560 0 0
-2560z m2462 60 c196 -855 361 -1574 366 -1598 l10 -42 -456 2 -457 3 -17 75
c-9 41 -20 85 -23 98 -5 22 -6 22 -211 22 l-206 0 6 27 c3 16 28 159 56 318
28 160 52 300 55 313 5 20 11 22 70 22 36 0 65 2 65 5 0 3 -121 521 -270 1151
-148 630 -270 1150 -270 1155 0 6 185 8 462 7 l463 -3 357 -1555z m2023 1540
c120 -13 266 -37 300 -50 l25 -10 0 -575 0 -575 -270 0 c-216 0 -270 3 -270
13 0 20 -59 468 -66 496 -5 23 -8 23 -67 17 -102 -10 -173 -35 -220 -76 -103
-91 -154 -274 -173 -617 l-7 -133 -458 0 -459 0 0 68 c0 177 42 475 92 651 40
145 131 326 213 428 173 216 435 337 804 373 103 10 416 4 556 -10z m-3259
-1150 c108 -454 196 -836 196 -850 -1 -14 -49 -282 -107 -597 -58 -314 -105
-574 -105 -577 0 -3 -208 -6 -461 -6 -434 0 -461 1 -457 18 3 9 166 660 363
1446 239 949 362 1422 367 1410 4 -11 96 -390 204 -844z m2519 -647 c42 -439
172 -629 475 -698 126 -29 423 -19 598 20 l22 5 0 -349 0 -349 -22 -5 c-50
-12 -251 -37 -377 -47 -172 -13 -296 -13 -441 1 -575 52 -903 297 -1070 798
-62 184 -110 464 -110 638 l0 53 459 0 459 0 7 -67z"/>
</g>
</svg>
